HIERARCHY
ROOT root
{
	OFFSET 0.000000 0.000000 0.000000
	CHANNELS 6 Xposition Yposition Zposition Zrotation Yrotation Xrotation
	JOINT lhip
	{
		OFFSET 0.058581 -0.082280 -0.017664
		CHANNELS 3 Zrotation Yrotation Xrotation
		JOINT lknee
		{
			OFFSET 0.043451 -0.386469 0.008037
			CHANNELS 3 Zrotation Yrotation Xrotation
			JOINT lankle
			{
				OFFSET -0.014790 -0.426874 -0.037428
				CHANNELS 3 Zrotation Yrotation Xrotation
				JOINT ltoe
				{
					OFFSET 0.041054 -0.060286 0.122042
					CHANNELS 3 Zrotation Yrotation Xrotation
					End Site
					{
						OFFSET 0.000000 0.000000 0.000000
					}
				}
			}
		}
	}
	JOINT rhip
	{
		OFFSET -0.060310 -0.090513 -0.013543
		CHANNELS 3 Zrotation Yrotation Xrotation
		JOINT rknee
		{
			OFFSET -0.043257 -0.383688 -0.004843
			CHANNELS 3 Zrotation Yrotation Xrotation
			JOINT rankle
			{
				OFFSET 0.019056 -0.420046 -0.034562
				CHANNELS 3 Zrotation Yrotation Xrotation
				JOINT rtoe
				{
					OFFSET -0.034840 -0.062106 0.130323
					CHANNELS 3 Zrotation Yrotation Xrotation
					End Site
					{
						OFFSET 0.000000 0.000000 0.000000
					}
				}
			}
		}
	}
	JOINT lowerback
	{
		OFFSET 0.004439 0.124404 -0.038385
		CHANNELS 3 Zrotation Yrotation Xrotation
		JOINT upperback
		{
			OFFSET 0.004488 0.137956 0.026820
			CHANNELS 3 Zrotation Yrotation Xrotation
			JOINT chest
			{
				OFFSET -0.002265 0.056032 0.002855
				CHANNELS 3 Zrotation Yrotation Xrotation
				JOINT lowerneck
				{
					OFFSET -0.013390 0.211636 -0.033468
					CHANNELS 3 Zrotation Yrotation Xrotation
					JOINT upperneck
					{
						OFFSET 0.010113 0.088937 0.050410
						CHANNELS 3 Zrotation Yrotation Xrotation
						End Site
						{
							OFFSET 0.000000 0.000000 0.000000
						}
					}
				}
				JOINT lclavicle
				{
					OFFSET 0.071702 0.114000 -0.018898
					CHANNELS 3 Zrotation Yrotation Xrotation
					JOINT lshoulder
					{
						OFFSET 0.122921 0.045205 -0.019046
						CHANNELS 3 Zrotation Yrotation Xrotation
						JOINT lelbow
						{
							OFFSET 0.255332 -0.015649 -0.022946
							CHANNELS 3 Zrotation Yrotation Xrotation
							JOINT lwrist
							{
								OFFSET 0.265709 0.012698 -0.007375
								CHANNELS 3 Zrotation Yrotation Xrotation
								End Site
								{
									OFFSET 0.000000 0.000000 0.000000
								}
							}
						}
					}
				}
				JOINT rclavicle
				{
					OFFSET -0.082954 0.112472 -0.023707
					CHANNELS 3 Zrotation Yrotation Xrotation
					JOINT rshoulder
					{
						OFFSET -0.113228 0.046853 -0.008472
						CHANNELS 3 Zrotation Yrotation Xrotation
						JOINT relbow
						{
							OFFSET -0.260127 -0.014369 -0.031269
							CHANNELS 3 Zrotation Yrotation Xrotation
							JOINT rwrist
							{
								OFFSET -0.269108 0.006794 -0.006027
								CHANNELS 3 Zrotation Yrotation Xrotation
								End Site
								{
									OFFSET 0.000000 0.000000 0.000000
								}
							}
						}
					}
				}
			}
		}
	}
}
MOTION
Frames: 13
Frame Time: 0.033333
0.101940 0.245910 1.004690 82.653524 -0.600962 83.033596 -0.114778 4.711473 15.403208 5.145715 1.600549 -2.788909 -0.528735 10.054607 -7.804112 0.000000 -0.000000 0.000000 -4.008993 -2.047702 6.009229 -2.516151 -3.079307 5.013596 5.484363 -1.388436 -2.839859 0.000000 -0.000000 0.000000 -0.105272 2.089054 -7.076115 7.280236 -8.449984 30.178604 2.660843 1.274501 -8.111182 -4.154392 0.126916 13.902029 2.870841 5.204038 -9.046448 -27.834229 -11.626333 11.807289 -53.260042 -10.683008 9.473477 35.574346 -57.730866 -24.226030 -23.253894 -19.312905 -20.776881 27.026052 15.220226 11.382116 44.744211 10.454383 4.704352 -114.831353 72.575965 -116.051920 19.167058 21.657277 -33.373810 
0.100629 0.242859 1.005510 82.520298 -0.714508 83.142238 0.133803 4.867140 14.620260 4.791753 0.659676 -1.649656 -0.644645 10.741941 -8.108753 0.000000 -0.000000 0.000000 -3.962408 -2.307591 5.719411 -2.458588 -2.313617 5.191447 5.615478 -1.921144 -3.054430 0.000000 -0.000000 0.000000 0.399316 2.027962 -6.353861 7.390957 -8.158163 29.736849 2.778926 1.349787 -8.145780 -4.542868 1.703785 13.670462 1.190648 6.914149 -9.085684 -28.857675 -10.926390 11.572422 -53.984810 -12.339916 9.186997 26.734745 -50.148984 -9.611101 -25.964769 -12.372222 -7.539203 27.724951 13.121779 11.716009 43.877635 8.918505 3.453606 -94.852087 75.968888 -91.440376 22.937570 17.797874 -25.773739 
0.100062 0.240119 1.006706 82.392757 -1.009453 83.293830 0.078499 4.920904 13.832653 4.481067 -0.205086 -0.542017 -0.682124 11.461980 -8.358673 0.000000 -0.000000 0.000000 -4.161044 -2.625019 5.578794 -2.392907 -1.524606 5.086009 5.804894 -2.396877 -3.104553 0.000000 -0.000000 0.000000 0.835109 1.920227 -5.942975 7.364166 -8.058798 29.235302 2.806544 1.459828 -7.972286 -5.201001 3.599102 13.659719 -0.435540 9.510501 -8.910100 -29.641099 -10.942306 11.674976 -55.074413 -13.369631 9.172174 20.697116 -40.585328 1.680570 -27.885241 -6.348756 2.465227 28.220795 11.156287 12.077845 43.289448 7.583482 1.940272 -66.877743 76.864612 -58.208508 25.843904 12.116255 -16.426760 
0.099381 0.237321 1.007509 82.336905 -1.253954 83.507817 0.092696 4.845017 12.630891 4.108519 -1.071581 1.217791 -0.663221 12.128662 -8.813706 0.000000 -0.000000 0.000000 -4.294799 -2.797285 5.392514 -2.257148 -1.062264 4.969250 5.984586 -2.853894 -3.241461 0.000000 -0.000000 0.000000 1.230157 1.760633 -5.300580 7.318808 -8.117784 28.214453 2.884609 1.470164 -7.556203 -6.223110 5.883646 13.688093 -1.758872 12.391906 -8.951336 -29.990215 -11.951628 12.514570 -56.625584 -13.269115 9.210289 17.312379 -30.442727 8.277627 -29.762765 -2.730838 6.710740 28.453709 10.000637 12.573110 43.195294 5.677838 0.447431 -45.329263 74.529385 -31.732926 27.475628 6.980809 -7.380632 
0.099510 0.234354 1.007969 82.165429 -1.612891 83.710319 0.077317 4.603984 11.511108 3.468277 -1.367034 3.037780 -0.695483 12.573309 -9.235085 0.000000 -0.000000 0.000000 -4.535391 -2.818381 5.276866 -2.149818 -0.805706 4.875525 6.161668 -2.971998 -3.281221 0.000000 -0.000000 0.000000 1.422239 1.702950 -4.997575 7.280098 -8.274342 27.691659 2.903054 1.539302 -7.025446 -7.412269 8.436022 13.305718 -2.627159 15.049759 -9.561929 -29.793253 -12.616511 12.755462 -58.253781 -12.055042 9.778273 14.543298 -21.496325 10.958995 -32.403343 -2.098932 5.921212 28.591556 8.900848 12.790228 43.361213 3.477520 -0.808010 -35.320913 70.971295 -20.003970 27.660759 4.291153 -0.936122 
0.099998 0.231180 1.008587 81.951315 -1.955459 83.798790 0.137172 4.523612 10.735440 2.860480 -1.542548 4.500204 -0.825063 12.903778 -9.716250 0.000000 -0.000000 0.000000 -4.769861 -2.686441 5.341817 -1.961726 -0.754009 4.683454 6.220338 -2.980911 -3.262099 0.000000 -0.000000 0.000000 1.368163 1.614908 -4.579000 7.417209 -8.371341 27.555794 3.071728 1.556127 -6.603225 -8.340193 10.800453 12.587383 -3.762278 17.194387 -10.311090 -29.878838 -11.987633 13.063344 -59.394875 -10.191984 9.867677 12.610635 -16.427303 12.604012 -35.651640 -2.466257 4.511334 28.814779 7.283746 13.092295 43.211068 1.058303 -2.296308 -33.338731 69.132991 -18.821360 28.770307 3.788451 1.599940 
0.100290 0.227385 1.009312 81.635703 -2.106311 84.091242 0.453130 4.900458 10.048744 2.343134 -1.907446 5.350642 -1.003135 13.189753 -10.029428 0.000000 -0.000000 0.000000 -4.754859 -2.583038 5.033005 -1.768293 -0.538835 4.703598 6.152724 -2.945910 -3.334888 0.000000 -0.000000 0.000000 1.448609 1.436855 -4.456441 7.585285 -8.272337 27.585978 3.147832 1.454715 -6.113175 -8.966434 12.337008 12.042325 -5.026915 19.434246 -11.362504 -30.321431 -9.561406 13.042435 -59.673218 -7.037072 9.559141 11.504499 -17.051091 14.493783 -36.939759 -2.318833 3.416214 28.851353 4.637623 12.681935 42.627063 -1.268202 -3.237478 -31.878355 69.979046 -18.753996 29.077314 4.243457 0.653914 
0.100342 0.223606 1.009840 81.281408 -2.076832 84.646184 0.710217 4.927554 9.242395 2.093477 -1.713451 5.874920 -0.930171 13.388298 -10.147572 0.000000 -0.000000 0.000000 -4.570053 -2.843798 4.284758 -1.599867 -0.242180 4.882911 6.191397 -2.693905 -3.371920 0.000000 -0.000000 0.000000 1.716778 1.449461 -4.733552 7.673066 -8.199173 27.543220 3.109333 1.262103 -5.479386 -8.975826 13.380433 11.840598 -5.822259 20.584859 -12.361677 -30.509484 -6.732865 12.512227 -59.678662 -3.401080 9.361558 10.282286 -19.290195 16.325604 -37.334998 -2.706589 3.547016 28.448340 2.107130 11.805627 42.393853 -3.867137 -3.420436 -32.073015 71.813037 -19.928007 29.360895 4.745604 -0.854872 
0.100594 0.220062 1.010410 81.143012 -2.000337 84.758037 0.952593 4.969339 8.945835 2.064461 -1.913800 6.267112 -1.018454 13.709965 -10.339086 0.000000 -0.000000 0.000000 -4.265639 -2.613081 4.185582 -1.483342 -0.203990 4.910419 6.123437 -2.848772 -3.488076 0.000000 -0.000000 0.000000 1.950000 1.271859 -4.343605 7.701662 -7.916129 27.108627 3.118043 1.145737 -4.722992 -8.439808 13.750529 11.871945 -6.166908 21.091854 -13.138933 -30.565879 -3.963834 11.899928 -59.518619 -0.262925 8.798572 9.408582 -21.314243 17.049494 -36.806469 -3.545300 3.432459 28.009635 -0.025903 11.017454 42.219873 -6.495983 -3.607222 -33.194240 73.974171 -21.520569 29.704445 5.938097 -2.104043 
0.100014 0.216569 1.010825 80.991886 -1.966821 84.861816 1.201717 4.855549 8.468173 1.945592 -1.865585 6.934644 -1.008366 13.892595 -10.456622 0.000000 -0.000000 0.000000 -4.036865 -2.505031 3.947194 -1.361438 -0.210507 5.073734 5.915739 -2.803933 -3.561777 0.000000 -0.000000 0.000000 1.910325 1.276035 -3.909829 7.814539 -7.670861 26.624106 3.240730 1.111539 -3.867324 -7.849079 13.847728 11.902751 -6.321700 20.975162 -13.896785 -30.256859 -1.969694 11.529894 -59.777723 1.753766 8.016940 9.214821 -22.076650 15.714440 -36.629871 -4.459806 2.106608 27.524256 -1.461184 10.507702 42.416674 -8.806756 -3.870965 -37.572919 75.968509 -25.881093 30.055254 6.182495 -2.442086 
0.098679 0.213741 1.011263 81.146594 -2.030776 84.891680 1.405883 4.527292 7.916759 1.698775 -1.796726 7.727897 -1.033427 13.812140 -10.603830 0.000000 -0.000000 0.000000 -3.947386 -2.434506 3.763010 -1.237244 -0.497153 5.278690 6.004469 -2.767951 -3.561376 0.000000 -0.000000 0.000000 1.692975 1.358321 -3.392726 7.956552 -7.619582 26.233258 3.373531 0.999573 -3.113002 -7.442554 13.989030 11.693186 -6.025881 20.394978 -14.479257 -29.554694 -1.277678 11.280679 -60.546414 2.375683 7.727810 8.827933 -19.873244 14.287055 -37.786338 -5.901340 0.170429 27.316207 -2.112691 10.282121 42.777476 -10.487316 -4.176708 -44.548310 77.021014 -32.737345 30.313795 6.334218 -2.600958 
0.096397 0.210909 1.011724 81.336350 -2.120270 84.981791 1.705622 4.284093 7.119157 1.230560 -1.801602 8.775480 -1.055920 13.743442 -10.736125 0.000000 -0.000000 0.000000 -3.884272 -2.414577 3.387340 -1.089702 -0.651183 5.657504 5.949490 -2.793459 -3.650722 0.000000 -0.000000 0.000000 1.539852 1.437023 -2.792097 7.888361 -7.686723 26.324947 3.468973 0.897676 -3.167651 -7.347805 13.894691 11.431423 -5.742024 20.257585 -14.864463 -29.806322 -1.587860 11.596746 -60.863263 3.095067 7.186365 9.820678 -19.155817 12.515086 -38.765205 -5.592069 -0.638978 27.450420 -1.898338 10.458685 43.148857 -11.579264 -4.687851 -52.329808 77.616048 -40.380131 30.797364 6.117725 -2.547050 
0.093368 0.208772 1.011890 81.842441 -2.201860 85.084384 2.003220 4.080328 6.232189 0.781988 -1.967254 9.788802 -1.077113 13.416842 -10.873156 0.000000 -0.000000 0.000000 -3.884261 -2.549292 3.101350 -0.937038 -1.014481 5.814042 5.861834 -2.840077 -3.672311 0.000000 -0.000000 0.000000 1.443967 1.407165 -2.154804 7.790697 -7.885041 26.387953 3.467635 0.774072 -3.343947 -7.210229 13.901418 10.888791 -5.492120 19.744683 -14.720874 -30.011829 -2.171560 11.861313 -61.041134 2.771811 7.140890 10.656931 -18.410686 13.002347 -40.282759 -5.208053 0.019235 27.845726 -1.439627 10.606743 43.269497 -11.610537 -4.963940 -59.319184 77.914379 -46.665979 31.029620 5.585195 -1.861141 
